<mxfile host="app.diagrams.net" modified="2021-03-13T11:37:30.862Z" agent="5.0 (Windows)" etag="4sX31Xx_m-AzxtzlXUvf" version="14.4.8" type="github">
  <diagram id="6_2m7ugSkjKdx31f40Cb" name="Page-1">
    <mxGraphModel dx="1157" dy="601" grid="1" gridSize="10" guides="1" tooltips="1" connect="1" arrows="1" fold="1" page="1" pageScale="1" pageWidth="827" pageHeight="1169" math="0" shadow="0">
      <root>
        <mxCell id="0" />
        <mxCell id="1" parent="0" />
        <mxCell id="22H3HKriIwD2UQggiFRQ-4" value="" style="edgeStyle=orthogonalEdgeStyle;rounded=0;orthogonalLoop=1;jettySize=auto;html=1;fontFamily=Times New Roman;" edge="1" parent="1" source="22H3HKriIwD2UQggiFRQ-1" target="22H3HKriIwD2UQggiFRQ-2">
          <mxGeometry relative="1" as="geometry" />
        </mxCell>
        <mxCell id="22H3HKriIwD2UQggiFRQ-1" value="Начало" style="ellipse;whiteSpace=wrap;html=1;aspect=fixed;" vertex="1" parent="1">
          <mxGeometry x="354" y="30" width="80" height="80" as="geometry" />
        </mxCell>
        <mxCell id="22H3HKriIwD2UQggiFRQ-8" style="edgeStyle=orthogonalEdgeStyle;rounded=0;orthogonalLoop=1;jettySize=auto;html=1;exitX=0.5;exitY=1;exitDx=0;exitDy=0;entryX=0.5;entryY=0;entryDx=0;entryDy=0;fontFamily=Times New Roman;" edge="1" parent="1" source="22H3HKriIwD2UQggiFRQ-11" target="22H3HKriIwD2UQggiFRQ-6">
          <mxGeometry relative="1" as="geometry">
            <Array as="points">
              <mxPoint x="394" y="290" />
              <mxPoint x="560" y="290" />
            </Array>
          </mxGeometry>
        </mxCell>
        <mxCell id="22H3HKriIwD2UQggiFRQ-2" value="&lt;div&gt;Объявление&lt;/div&gt;&lt;div&gt;A и В и С&lt;br&gt;&lt;/div&gt;" style="rounded=1;whiteSpace=wrap;html=1;fontFamily=Times New Roman;" vertex="1" parent="1">
          <mxGeometry x="334" y="150" width="120" height="60" as="geometry" />
        </mxCell>
        <mxCell id="22H3HKriIwD2UQggiFRQ-18" style="edgeStyle=orthogonalEdgeStyle;rounded=0;orthogonalLoop=1;jettySize=auto;html=1;entryX=0.5;entryY=0;entryDx=0;entryDy=0;fontFamily=Times New Roman;fontSize=14;" edge="1" parent="1" source="22H3HKriIwD2UQggiFRQ-6" target="22H3HKriIwD2UQggiFRQ-17">
          <mxGeometry relative="1" as="geometry" />
        </mxCell>
        <mxCell id="22H3HKriIwD2UQggiFRQ-6" value="B &amp;gt; C" style="rhombus;whiteSpace=wrap;html=1;fontFamily=Times New Roman;" vertex="1" parent="1">
          <mxGeometry x="520" y="330" width="80" height="80" as="geometry" />
        </mxCell>
        <mxCell id="22H3HKriIwD2UQggiFRQ-23" style="edgeStyle=orthogonalEdgeStyle;rounded=0;orthogonalLoop=1;jettySize=auto;html=1;fontFamily=Times New Roman;fontSize=14;entryX=0.5;entryY=0;entryDx=0;entryDy=0;" edge="1" parent="1" source="22H3HKriIwD2UQggiFRQ-9" target="22H3HKriIwD2UQggiFRQ-25">
          <mxGeometry relative="1" as="geometry">
            <mxPoint x="430" y="530" as="targetPoint" />
            <Array as="points">
              <mxPoint x="210" y="520" />
              <mxPoint x="430" y="520" />
            </Array>
          </mxGeometry>
        </mxCell>
        <mxCell id="22H3HKriIwD2UQggiFRQ-9" value="Напечатать А" style="rounded=1;whiteSpace=wrap;html=1;fontFamily=Times New Roman;" vertex="1" parent="1">
          <mxGeometry x="150" y="320" width="120" height="60" as="geometry" />
        </mxCell>
        <mxCell id="22H3HKriIwD2UQggiFRQ-14" value="" style="edgeStyle=orthogonalEdgeStyle;rounded=0;orthogonalLoop=1;jettySize=auto;html=1;fontFamily=Times New Roman;exitX=1;exitY=0.5;exitDx=0;exitDy=0;" edge="1" parent="1" source="22H3HKriIwD2UQggiFRQ-6">
          <mxGeometry relative="1" as="geometry">
            <mxPoint x="710" y="420" as="targetPoint" />
            <Array as="points">
              <mxPoint x="710" y="370" />
            </Array>
          </mxGeometry>
        </mxCell>
        <mxCell id="22H3HKriIwD2UQggiFRQ-24" style="edgeStyle=orthogonalEdgeStyle;rounded=0;orthogonalLoop=1;jettySize=auto;html=1;exitX=0.5;exitY=1;exitDx=0;exitDy=0;fontFamily=Times New Roman;fontSize=14;" edge="1" parent="1" source="22H3HKriIwD2UQggiFRQ-10">
          <mxGeometry relative="1" as="geometry">
            <mxPoint x="430" y="560" as="targetPoint" />
            <Array as="points">
              <mxPoint x="710" y="520" />
              <mxPoint x="430" y="520" />
            </Array>
          </mxGeometry>
        </mxCell>
        <mxCell id="22H3HKriIwD2UQggiFRQ-10" value="Напечатать С" style="rounded=1;whiteSpace=wrap;html=1;fontFamily=Times New Roman;" vertex="1" parent="1">
          <mxGeometry x="650" y="420" width="120" height="60" as="geometry" />
        </mxCell>
        <mxCell id="22H3HKriIwD2UQggiFRQ-13" style="edgeStyle=orthogonalEdgeStyle;rounded=0;orthogonalLoop=1;jettySize=auto;html=1;exitX=0;exitY=0.5;exitDx=0;exitDy=0;entryX=0.5;entryY=0;entryDx=0;entryDy=0;fontFamily=Times New Roman;" edge="1" parent="1" source="22H3HKriIwD2UQggiFRQ-11" target="22H3HKriIwD2UQggiFRQ-9">
          <mxGeometry relative="1" as="geometry" />
        </mxCell>
        <mxCell id="22H3HKriIwD2UQggiFRQ-11" value="A &amp;gt; B" style="rhombus;whiteSpace=wrap;html=1;fontFamily=Times New Roman;" vertex="1" parent="1">
          <mxGeometry x="354" y="250" width="80" height="80" as="geometry" />
        </mxCell>
        <mxCell id="22H3HKriIwD2UQggiFRQ-12" style="edgeStyle=orthogonalEdgeStyle;rounded=0;orthogonalLoop=1;jettySize=auto;html=1;exitX=0.5;exitY=1;exitDx=0;exitDy=0;entryX=0.5;entryY=0;entryDx=0;entryDy=0;fontFamily=Times New Roman;" edge="1" parent="1" source="22H3HKriIwD2UQggiFRQ-2" target="22H3HKriIwD2UQggiFRQ-11">
          <mxGeometry relative="1" as="geometry">
            <mxPoint x="394" y="210" as="sourcePoint" />
            <mxPoint x="570" y="450" as="targetPoint" />
          </mxGeometry>
        </mxCell>
        <mxCell id="22H3HKriIwD2UQggiFRQ-15" value="true" style="text;html=1;align=center;verticalAlign=middle;resizable=0;points=[];autosize=1;fontFamily=Times New Roman;fontSize=14;" vertex="1" parent="1">
          <mxGeometry x="260" y="270" width="40" height="20" as="geometry" />
        </mxCell>
        <mxCell id="22H3HKriIwD2UQggiFRQ-16" value="false" style="text;html=1;align=center;verticalAlign=middle;resizable=0;points=[];autosize=1;fontFamily=Times New Roman;fontSize=14;" vertex="1" parent="1">
          <mxGeometry x="470" y="270" width="40" height="20" as="geometry" />
        </mxCell>
        <mxCell id="22H3HKriIwD2UQggiFRQ-27" style="edgeStyle=none;rounded=0;orthogonalLoop=1;jettySize=auto;html=1;exitX=0.5;exitY=1;exitDx=0;exitDy=0;fontFamily=Times New Roman;fontSize=14;entryX=0.5;entryY=0;entryDx=0;entryDy=0;" edge="1" parent="1" source="22H3HKriIwD2UQggiFRQ-17" target="22H3HKriIwD2UQggiFRQ-25">
          <mxGeometry relative="1" as="geometry">
            <mxPoint x="430" y="520" as="targetPoint" />
          </mxGeometry>
        </mxCell>
        <mxCell id="22H3HKriIwD2UQggiFRQ-17" value="Напечатать В" style="rounded=1;whiteSpace=wrap;html=1;fontFamily=Times New Roman;fontSize=12;" vertex="1" parent="1">
          <mxGeometry x="370" y="420" width="120" height="60" as="geometry" />
        </mxCell>
        <mxCell id="22H3HKriIwD2UQggiFRQ-20" value="&lt;font style=&quot;font-size: 14px&quot;&gt;true&lt;/font&gt;" style="text;html=1;align=center;verticalAlign=middle;resizable=0;points=[];autosize=1;fontSize=12;fontFamily=Times New Roman;" vertex="1" parent="1">
          <mxGeometry x="460" y="350" width="40" height="20" as="geometry" />
        </mxCell>
        <mxCell id="22H3HKriIwD2UQggiFRQ-21" value="false" style="text;html=1;align=center;verticalAlign=middle;resizable=0;points=[];autosize=1;fontSize=14;fontFamily=Times New Roman;" vertex="1" parent="1">
          <mxGeometry x="630" y="350" width="40" height="20" as="geometry" />
        </mxCell>
        <mxCell id="22H3HKriIwD2UQggiFRQ-25" value="Конец" style="ellipse;whiteSpace=wrap;html=1;aspect=fixed;fontFamily=Times New Roman;fontSize=14;" vertex="1" parent="1">
          <mxGeometry x="390" y="560" width="80" height="80" as="geometry" />
        </mxCell>
      </root>
    </mxGraphModel>
  </diagram>
</mxfile>
